Coordinates
version=1
nRows=16
nColumns=36
inDegrees=yes

Units are S.I. units (second, meters, Newtons, ...)
If the header above contains a line with 'inDegrees', this indicates whether rotational values are in degrees (yes) or radians (no).

endheader
time	pelvis_tilt	pelvis_list	pelvis_rotation	pelvis_tx	pelvis_ty	pelvis_tz	hip_flexion_r	hip_adduction_r	hip_rotation_r	knee_angle_r	knee_angle_r_beta	ankle_angle_r	subtalar_angle_r	mtp_angle_r	hip_flexion_l	hip_adduction_l	hip_rotation_l	knee_angle_l	knee_angle_l_beta	ankle_angle_l	subtalar_angle_l	mtp_angle_l	lumbar_extension	lumbar_bending	lumbar_rotation	arm_flex_r	arm_add_r	arm_rot_r	elbow_flex_r	pro_sup_r	arm_flex_l	arm_add_l	arm_rot_l	elbow_flex_l	pro_sup_l
      4.21666670	     24.79949267	     -0.43392929	      3.46221073	      0.04582643	      0.65053158	     -0.10580512	     45.80719097	     -3.75448323	      2.20219161	     82.68293584	      1.44308947	     11.57857923	    -20.49225901	     -7.49999987	     47.46488515	     -2.54699682	      6.06708635	     84.05720396	      1.46707497	     12.79321563	    -10.91934541	     -7.49999987	    -37.12652988	      1.39858055	     -2.11131286	     12.24247470	    -11.98374084	     14.45089377	     28.78130487	     83.39449243	      7.30913593	     -8.57853126	      0.35052203	     31.37302916	     66.89861274
      4.23333330	     24.54409555	     -0.44085999	      3.35535486	      0.04715922	      0.65108895	     -0.10571145	     45.99199599	     -3.65565898	      2.29192237	     82.57131713	      1.44114135	     11.52689407	    -20.64228440	     -7.49999987	     47.56929351	     -2.66341462	      5.96580703	     83.90309397	      1.46438524	     12.84414937	    -10.95484636	     -7.49999987	    -37.15165566	      1.34437135	     -2.12329313	     12.31544201	    -11.95328910	     14.53151612	     28.90729476	     82.61781983	      7.46862194	     -8.61122954	      0.49780935	     31.40807614	     66.63874544
      4.25000000	     24.15254096	     -0.43617619	      3.30954786	      0.04863080	      0.64978852	     -0.10571539	     46.48480937	     -3.64563101	      2.44946909	     82.78037214	      1.44479005	     11.25956029	    -20.45527669	     -7.49999987	     47.91937244	     -2.73316448	      5.91304462	     83.92802193	      1.46482032	     12.91620602	    -10.95446436	     -7.49999987	    -36.88580587	      1.25392213	     -2.15679759	     12.33542865	    -11.94134322	     14.03103861	     28.82869163	     87.37865023	      7.62581845	     -8.75693618	      0.82028254	     31.31911606	     68.34480177
      4.26666670	     23.77754118	     -0.45645416	      3.21302025	      0.05050803	      0.64830542	     -0.10676221	     47.06218319	     -3.65942562	      2.62374736	     83.14375339	      1.45113225	     11.46228541	    -20.19343870	     -7.49999987	     48.30264746	     -2.76624616	      5.85497598	     84.14661156	      1.46863543	     13.10589834	    -11.11239346	     -7.49999987	    -36.87095074	      1.18401975	     -2.20206295	     12.07892251	    -12.10359107	     13.93016378	     29.93119860	     86.27421766	      7.45306911	     -8.81408421	      0.81607200	     32.37599536	     67.96103523
      4.28333330	     23.51242334	     -0.56279948	      3.10697080	      0.05085526	      0.64841011	     -0.10616256	     47.36689737	     -3.49911114	      2.68453543	     83.19746142	      1.45206963	     10.88839583	    -20.46955990	     -7.49999987	     48.57618389	     -2.94320728	      5.86691533	     84.29100099	      1.47115550	     13.13255803	    -11.18609734	     -7.49999987	    -36.69191418	      1.23355346	     -2.31254761	     12.64730367	    -11.92711094	     14.25749878	     28.90631633	     86.09695808	      7.86191953	     -8.83132951	      1.12095797	     31.34903118	     67.89262737
      4.30000000	     23.09928913	     -0.56405624	      2.96794412	      0.05080965	      0.64850804	     -0.10557634	     47.89857269	     -3.49592130	      2.73745685	     83.30031242	      1.45386472	     11.07056817	    -20.17716693	     -7.49999987	     49.01416040	     -3.00245132	      5.77870340	     84.34182315	      1.47204251	     13.16716777	    -11.20016193	     -7.49999987	    -36.67134023	      1.12428566	     -2.28111006	     12.40824096	    -12.11370435	     14.20787471	     29.88943777	     85.07451477	      7.70780242	     -8.96298914	      1.13203961	     32.35420666	     67.49164119
      4.31666670	     22.62237419	     -0.63371523	      2.98501793	      0.05418427	      0.64895495	     -0.10518788	     48.26609816	     -3.40442825	      2.76718114	     83.27164570	      1.45336439	     11.25812677	    -20.03137443	     -7.49999987	     49.38183816	     -3.06394733	      5.84865866	     84.37869490	      1.47268604	     13.25956456	    -11.28613235	     -7.49999987	    -36.62258698	      1.06878740	     -2.26433279	     12.16734968	    -12.24768975	     14.17771162	     30.80659626	     84.14044445	      7.60936004	     -9.13264633	      1.16710007	     33.29300859	     67.15449517
      4.33333330	     22.30206125	     -0.65342344	      3.03655333	      0.05597864	      0.64993481	     -0.10707256	     48.43140711	     -3.41810548	      2.79397617	     83.10359219	      1.45043130	     11.10413805	    -19.98187940	     -7.49999987	     49.50573319	     -3.04457149	      5.81358034	     84.30683949	      1.47143193	     13.53968705	    -11.03556404	     -7.49999987	    -36.42924022	      1.15204929	     -2.50031925	     13.03183133	    -12.04271073	     15.41647362	     28.83505745	     84.69438339	      8.25242829	     -9.25698222	      2.40152480	     31.52829644	     67.47593482
      4.35000000	     22.01119305	     -0.66791803	      3.13433781	      0.05576501	      0.65017436	     -0.10507212	     48.67019190	     -3.33354499	      2.76281054	     83.11345597	      1.45060346	     11.16610870	    -20.12876942	     -7.49999987	     49.76157153	     -3.05520348	      5.92237131	     84.29626893	      1.47124744	     13.36544966	    -11.02419029	     -7.49999987	    -36.54817390	      1.07779131	     -2.60129273	     12.99069478	    -12.09907430	     15.63502948	     29.23063160	     84.42783537	      8.34846209	     -9.41449258	      2.62917769	     31.91585430	     67.41028514
      4.36666670	     21.50501292	     -0.70304060	      3.19116210	      0.05781667	      0.64753269	     -0.10645073	     49.36644294	     -3.45123285	      2.67437652	     83.45558467	      1.45657473	     11.36784518	    -20.27768201	     -7.49999987	     50.49721329	     -3.06494071	      5.92738775	     84.74250895	      1.47903580	     13.45001085	    -10.67982732	     -7.49999987	    -36.37687891	      1.14648644	     -2.71881611	     13.40141204	    -12.24537667	     17.32074662	     28.75790765	     84.92252849	      8.74523185	     -9.75985778	      4.43119771	     31.46511746	     67.74353674
      4.38333330	     21.09983717	     -0.65187663	      3.31579224	      0.05757009	      0.64798553	     -0.10576433	     49.79453119	     -3.56791638	      2.65520382	     83.43671146	      1.45624533	     11.17215530	    -20.51484240	     -7.49999987	     51.03051002	     -2.97650479	      5.81924982	     84.93153302	      1.48233489	     13.21562850	    -10.78132636	     -7.49999987	    -36.59565204	      1.17877328	     -2.91354997	     13.41316554	    -12.27850396	     17.38227264	     29.30098787	     84.25091980	      8.85545253	     -9.91377183	      4.69435893	     31.90585387	     67.47196566
      4.40000000	     20.53018849	     -0.65571225	      3.29646254	      0.05941319	      0.65174868	     -0.10619992	     49.93846159	     -3.48764793	      2.69874229	     83.07651982	      1.44995880	     11.48429666	    -20.58226243	     -7.49999987	     51.39207546	     -2.92896360	      5.76031417	     84.48776820	      1.47458973	     13.15927730	    -10.71297390	     -7.49999987	    -36.64895857	      1.15890289	     -2.91176683	     13.29946747	    -12.41073380	     17.35254035	     30.05495807	     83.53863739	      8.83114793	    -10.00481688	      4.73180729	     32.62663434	     67.21128331
      4.41666670	     20.23940157	     -0.69021778	      3.35296656	      0.06364754	      0.64979826	     -0.10349858	     50.07680531	     -3.46648738	      2.68706912	     83.23479403	      1.45272121	     11.52336768	    -20.55459931	     -7.49999987	     51.49352172	     -3.11636718	      5.89030630	     84.34677261	      1.47212890	     13.18225290	    -10.68614458	     -7.49999987	    -36.89960070	      1.18504977	     -2.94725554	     13.37653146	    -12.39846635	     17.37185098	     30.03201836	     83.55351450	      9.00560289	    -10.06461856	      4.74706043	     32.61591305	     67.21784410
      4.43333330	     19.27615807	     -0.77947483	      3.41047760	      0.06396866	      0.64774471	     -0.10482502	     51.23364025	     -3.49214945	      2.68356222	     83.50876569	      1.45750292	     12.30565712	    -19.64771967	     -7.49999987	     52.67002828	     -3.11359465	      5.97522512	     84.75613663	      1.47927365	     13.43072146	    -10.32515393	     -7.49999987	    -36.33067051	      1.25499525	     -3.07395504	     13.58651280	    -12.38529882	     17.88796334	     29.74249211	     83.53066008	      9.23755934	    -10.30055276	      5.50772810	     32.13651031	     67.29503597
      4.45000000	     18.84867490	     -0.83267557	      3.40877540	      0.06783193	      0.64885222	     -0.10605483	     51.53509226	     -3.50991578	      2.77809692	     83.67417361	      1.46038983	     12.54775038	    -19.37851296	     -7.49999987	     53.00496167	     -3.08842645	      6.09267361	     84.82953426	      1.48055468	     13.46780636	    -10.31391807	     -7.49999987	    -36.54359840	      1.24962478	     -2.96360111	     13.46024118	    -12.56022697	     17.85355945	     30.59114794	     82.83184362	      9.15330937	    -10.41639427	      5.53108412	     32.96188575	     67.05881473
      4.46666670	     18.26574044	     -0.80374040	      3.34934135	      0.06983618	      0.64828514	     -0.10662625	     52.07247515	     -3.62514230	      2.90896372	     83.76005952	      1.46188882	     12.63647309	    -19.15846256	     -7.49999987	     53.45534501	     -3.00902879	      5.96378928	     84.87745061	      1.48139097	     13.71223514	    -10.42934051	     -7.49999987	    -36.22045541	      1.29623411	     -2.96993116	     13.81026469	    -12.50015571	     18.25432968	     29.60861722	     82.71140843	      9.45468387	    -10.40027300	      5.95790248	     32.04556088	     66.94991337
